<svg width="169" height="43" viewBox="0 0 169 43" fill="none" xmlns="http://www.w3.org/2000/svg">
<path fill-rule="evenodd" clip-rule="evenodd" d="M32.3626 1.63552C42.7969 4.97006 44.2197 17.1173 44.2197 17.1173C44.5754 20.2137 44.4568 23.191 43.864 26.2873C43.864 26.4064 43.7454 26.6446 43.7454 26.7637C43.2711 28.7882 42.4411 33.0755 35.6826 38.3155C34.2598 39.5064 32.5998 40.6973 30.8212 40.9355C30.5841 40.9355 30.3469 40.9355 30.3469 40.8164C30.2284 40.6973 30.5841 40.2209 30.7026 40.2209C35.2083 37.4819 41.4926 32.9564 41.7297 22.2382C41.7297 22.2382 42.3226 12.1155 36.1569 7.35188C34.0226 5.6846 31.6512 4.37461 29.0427 3.42188C28.6869 3.30279 25.6041 2.58824 25.4855 3.1837C25.367 3.89824 26.6712 4.01733 27.2641 4.01733C28.5684 4.13642 29.8727 4.61279 31.0584 5.20824C35.9198 7.59006 37.5798 10.4482 38.1726 11.5201C38.1726 11.6391 38.2912 11.7582 38.2912 11.7582C40.1883 14.8546 40.3069 20.571 40.3069 22.1191C40.3069 22.2382 40.3069 22.3573 40.3069 22.3573C40.4254 27.9546 37.5798 31.7655 36.1569 33.79C36.1569 33.9091 36.0383 33.9091 36.0383 34.0282C33.6669 37.2437 28.5684 41.2928 20.0313 42.0073C16.3556 42.2455 12.6799 41.5309 9.35992 39.7446C7.10708 38.3155 5.20994 36.41 3.7871 34.1473C3.43138 33.4328 2.60139 31.4082 3.54995 31.2891C3.90567 31.2891 4.26138 31.7655 4.85423 32.5991C5.20994 33.1946 5.8028 33.79 6.39565 34.5046C7.69993 36.0528 9.35992 37.3628 11.1385 38.3155C13.8656 39.6255 17.067 40.34 18.3713 40.2209C18.4899 40.2209 18.6084 40.1018 18.6084 39.9828C18.6084 39.8637 18.4899 39.7446 18.3713 39.7446C17.067 39.5064 15.7627 39.2682 14.577 38.9109C11.3756 37.6009 8.52992 35.4573 6.27708 32.8373C5.09137 31.17 4.26138 29.3837 3.90567 27.3591C3.54995 24.501 3.54995 21.5237 3.7871 18.6655C4.37995 14.7355 6.51422 11.1628 9.47849 8.66188C11.1385 7.23279 13.8656 6.04188 15.407 5.44642C15.8813 5.32733 16.1184 5.08915 16.3556 5.08915C16.4742 5.08915 16.4742 4.97006 16.4742 4.97006C16.4742 4.85097 16.3556 4.85097 16.3556 4.85097C16.1184 4.85097 15.9999 4.85097 15.7627 4.85097C15.6442 4.85097 15.6442 4.85097 15.5256 4.85097C15.407 4.85097 15.407 4.85097 15.2885 4.85097C14.8142 4.97006 2.60139 7.70915 2.36425 22.7146C2.36425 24.0246 1.17854 23.31 1.05997 22.4764C0.704257 20.3328 0.704257 18.07 1.17854 15.9264C2.12711 12.2346 4.26138 9.01915 7.10708 6.63733C10.6642 3.54097 15.7627 1.75461 19.9127 1.04006H20.0313C23.707 0.325517 26.6712 -0.150846 32.3626 1.63552ZM2.9571 29.0264C2.83853 28.431 2.83853 27.9546 2.83853 27.3591C2.83853 26.6446 2.71996 26.0491 2.36425 25.4537C2.12711 25.2155 1.88996 25.0964 1.53425 25.0964C-0.00716713 25.0964 0.467116 27.4782 0.704257 28.3119C0.822828 28.6691 0.941399 29.0264 1.29711 29.2646C1.53425 29.5028 1.88996 29.6219 2.24568 29.7409C2.48282 29.86 2.60139 29.7409 2.83853 29.6219C2.9571 29.5028 3.07567 29.2646 2.9571 29.0264Z" fill="white"/>
<path d="M32.9552 19.9755C32.718 19.8564 32.5995 19.8564 32.3623 19.7373C31.7695 19.4991 30.3466 19.1418 29.2795 18.9037C28.6866 18.7846 27.9752 18.5464 27.8566 18.5464C27.6195 17.9509 27.5009 17.2364 27.3823 16.6409C27.3823 16.4027 27.2638 16.1646 27.2638 16.0455C27.1452 15.6882 27.0266 15.45 26.6709 15.5691C26.5523 15.5691 24.8924 16.0455 22.1652 16.76C20.3867 17.2364 18.4895 17.7127 18.371 17.7127C18.2524 17.7127 18.1338 17.8318 16.9481 19.7373C16.5924 20.3327 16.1181 21.0473 16.1181 21.0473C16.1181 21.0473 15.881 21.1664 15.5253 21.2855C14.8138 21.6427 13.391 22.2382 12.2053 22.9527C10.7824 23.7864 9.3596 24.62 8.17389 25.6918C8.05532 25.8109 8.05532 25.93 8.17389 26.0491C8.29246 26.1682 8.5296 26.2873 8.76674 26.2873H8.88531C9.12246 26.2873 17.3038 24.62 21.9281 23.7864C23.1138 23.5482 24.5366 23.4291 26.3152 23.1909C30.5838 22.7146 34.8523 22.4764 35.0894 22.4764C35.3266 22.4764 35.5637 22.3573 35.8009 22.2382C35.9194 22.1191 36.038 21.8809 36.038 21.6427C35.6823 21.1664 34.8523 20.8091 32.9552 19.9755Z" fill="black"/>
<path fill-rule="evenodd" clip-rule="evenodd" d="M158.521 28.4308H157.217V28.669H157.691V30.0981H158.047V28.669H158.521V28.4308ZM159.232 28.4308H158.758V30.0981H159.114V28.669L159.588 30.0981H159.825L160.3 28.669V30.0981H160.655V28.4308H160.181L159.707 29.7408L159.232 28.4308Z" fill="black"/>
<path fill-rule="evenodd" clip-rule="evenodd" d="M60.4636 22.5955C59.6336 22.7146 58.9222 22.8337 58.4479 23.31C59.2779 24.5009 60.9379 24.3818 62.1236 24.2628C66.155 23.9055 70.4235 21.2855 70.5421 17.3555C70.6607 12.4728 65.9179 9.73368 61.0565 10.0909C59.0408 10.21 55.9579 10.8055 56.6693 13.6637C57.2622 14.0209 57.855 14.0209 58.5665 14.0209C58.685 14.0209 58.9222 14.0209 59.0408 14.0209C56.5508 16.76 54.5351 19.7373 52.9937 23.0718C51.6894 25.6918 50.7408 28.4309 50.0294 31.2891C50.0294 31.4082 50.0294 31.4082 50.0294 31.5273C49.7922 32.48 49.5551 33.6709 50.6222 34.5046C52.5194 34.3855 53.3494 32.5991 54.0608 31.17C54.1794 30.9318 54.2979 30.6937 54.4165 30.5746C54.5351 30.3364 54.6536 30.0982 54.7722 29.86C57.3808 24.9773 60.1079 19.9755 61.7679 14.2591C64.2579 14.6164 66.2736 15.9264 66.3921 18.07C66.5107 20.5709 63.4279 22 61.5307 22.4764C61.175 22.4764 60.8193 22.4764 60.4636 22.5955ZM128.167 19.7373C128.642 18.7846 128.997 17.9509 129.353 16.9982C129.59 16.4028 129.827 15.9264 130.065 15.2119C130.065 15.0928 130.183 14.9737 130.183 14.8546C130.776 13.6637 132.08 10.8055 130.42 10.4482H130.302C128.167 11.0437 126.507 14.0209 124.966 16.6409C124.255 17.8319 123.662 18.9037 123.069 19.7373C122.95 19.7373 122.832 19.7373 122.713 19.7373C120.46 19.6182 117.852 19.6182 117.97 21.2855C118.089 22.3573 119.156 22.7146 120.223 23.1909C120.579 23.31 121.053 23.5482 121.409 23.6673C121.29 23.9055 121.172 24.1437 121.053 24.62C120.223 26.7637 118.682 30.8128 120.579 32.0037C122.95 33.4328 124.136 30.0982 124.729 28.55C125.203 26.8828 125.915 25.2155 126.626 23.6673C127.456 23.5482 128.405 23.4291 129.353 23.31C130.302 23.0719 131.25 22.9528 132.08 22.9528C132.08 23.1909 131.962 23.4291 131.843 23.6673C131.369 25.2155 130.895 27.1209 131.725 28.9073C133.503 29.9791 134.807 28.7882 135.282 27.7164C135.756 26.7637 136.112 25.3346 136.349 24.0246C136.586 22.9528 136.823 21.8809 137.06 21.2855C137.416 21.0473 137.772 20.9282 138.127 20.8091C139.076 20.4518 139.906 20.0946 140.143 19.1419C139.669 18.7846 139.195 18.9037 138.602 19.0228C138.246 19.1419 138.009 19.1419 137.653 19.1419C138.009 17.9509 138.365 16.76 138.839 15.5691C138.957 15.3309 138.957 15.2119 139.076 14.9737C139.432 13.9019 139.906 12.7109 139.076 11.6391C137.416 11.8773 136.467 13.4255 135.756 14.6164C135.637 14.7355 135.519 14.9737 135.519 15.0928C135.045 15.8073 134.689 16.5219 134.333 17.3555C133.859 18.1891 133.503 19.0228 133.029 19.7373C132.436 19.7373 131.843 19.7373 131.369 19.8564C130.539 19.7373 129.353 19.8564 128.167 19.7373ZM73.5064 13.6637C74.5735 11.9964 78.1306 10.3291 80.1463 11.0437C79.9092 12.4728 79.0792 13.3064 78.1306 14.3782C78.0121 14.4973 77.8935 14.6164 77.7749 14.8546C77.6564 14.9737 77.5378 15.0928 77.4192 15.3309C76.5892 16.2837 75.5221 17.5937 73.9807 17.2364C72.5578 16.76 72.795 14.7355 73.5064 13.6637ZM160.774 14.0209C159.352 13.6637 158.522 14.4973 157.81 15.5691C157.692 15.6882 157.573 15.9264 157.454 16.0455C157.217 16.4028 156.98 16.76 156.743 16.9982C156.387 17.5937 156.032 17.9509 155.676 18.07C155.083 18.1891 154.253 18.07 153.542 17.8319C152.83 17.5937 152.237 17.4746 151.763 17.5937C151.289 17.7128 150.933 18.1891 150.933 18.6655C150.933 19.8564 152.119 20.2137 153.304 20.69C153.542 20.8091 153.897 20.8091 154.134 20.9282C153.304 22.4764 152.712 24.2628 152.237 25.93C151.882 27.7164 151.407 30.2173 152.356 32.1227C153.304 32.0037 153.66 30.9318 154.016 30.0982C154.134 29.86 154.134 29.7409 154.253 29.6218C155.439 26.5255 156.98 23.5482 158.64 20.69C161.249 20.4519 163.739 19.9755 166.229 19.2609C166.466 19.2609 166.584 19.1419 166.822 19.1419C167.414 19.0228 168.126 18.9037 168.363 18.3082C167.889 17.8319 167.177 17.8319 166.347 17.8319C166.11 17.8319 165.992 17.8319 165.754 17.8319C164.687 17.8319 163.502 17.8319 162.434 17.8319C161.486 17.8319 160.656 17.8319 160.063 17.8319C160.182 17.5937 160.3 17.3555 160.537 17.1173C160.893 16.4028 161.604 15.3309 160.774 14.0209ZM95.2048 24.1437C94.612 24.7391 94.0191 25.3346 93.3077 25.93C93.9005 26.0491 94.4934 26.1682 95.2048 26.2873C96.8648 26.6446 98.6434 27.0018 100.185 26.4064C99.9476 25.4537 99.8291 24.3818 100.066 23.4291C101.252 19.9755 106.232 17.3555 110.975 17.9509C111.093 18.07 111.33 17.9509 111.568 17.9509C111.923 17.8319 112.279 17.7128 112.635 17.9509C113.583 18.9037 112.99 19.9755 112.516 21.0473C112.16 21.7618 111.923 22.4764 112.042 23.0718C112.279 23.7864 112.872 24.0246 113.583 24.1437C114.176 24.2628 114.888 24.5009 115.243 25.0964C114.888 27.1209 110.145 27.0018 108.959 25.4537C108.722 25.5728 108.366 25.8109 108.129 25.93C106.35 27.0018 104.216 28.1928 101.37 27.3591C100.896 27.7164 100.422 28.0737 99.9476 28.4309C98.1691 29.3837 95.7977 29.1455 93.4263 28.9073C92.122 28.7882 90.8177 28.6691 89.5134 28.6691C89.2763 28.6691 89.0391 28.6691 88.802 28.7882C88.2091 28.9073 87.6163 29.0264 87.142 28.55C86.9049 27.5973 87.142 26.6446 87.7349 25.93C88.6834 24.62 90.1063 23.6673 91.6477 22.7146C92.8334 21.8809 94.0191 21.1664 94.8491 20.2137C92.122 20.5709 86.6677 20.69 88.3277 17.1173C88.6834 16.8791 89.0391 16.9982 89.3949 17.1173C89.632 17.1173 89.8691 17.1173 90.1063 17.1173C91.1734 17.1173 92.2406 16.9982 93.4263 16.8791C94.3748 16.76 95.442 16.6409 96.272 16.6409C97.5762 16.6409 99.3548 16.8791 99.8291 17.9509C100.422 19.6182 98.7619 20.9282 97.6948 21.8809C97.4577 22.1191 97.2205 22.2382 97.1019 22.4764C96.3905 22.9528 95.7977 23.5482 95.2048 24.1437ZM73.5064 18.4273C73.7435 18.4273 73.9807 18.4273 74.2178 18.5464C75.2849 22 73.7435 24.2628 72.0835 26.5255C71.3721 27.4782 70.6607 28.55 70.1864 29.6218C70.0678 29.86 70.0678 30.0982 70.0678 30.3364C70.0678 30.6937 69.9493 31.0509 69.7121 31.2891C67.9336 31.8846 67.1036 30.0982 66.985 28.7882C66.6293 25.6918 69.475 22.7146 71.6092 20.4519C72.0835 19.8564 72.5578 19.38 73.0321 18.9037C73.0321 18.6655 73.2692 18.4273 73.5064 18.4273ZM87.142 19.6182C86.0749 19.2609 84.652 19.2609 83.1106 19.2609C82.2806 19.2609 81.332 19.2609 80.5021 19.2609C80.0278 19.2609 79.6721 19.1419 79.1978 19.1419C77.4192 18.9037 75.6407 18.7846 75.7592 20.2137C75.8778 22.3573 80.2649 22.1191 82.5178 21.8809C81.4506 22.9528 80.1463 23.9055 78.9606 24.8582C78.3678 25.3346 77.7749 25.8109 77.3006 26.2873C77.0635 26.5255 76.8264 26.6446 76.4706 26.8828C74.9292 28.0737 72.9135 29.6218 73.625 32.1227C74.8107 32.8373 76.1149 32.5991 77.6564 32.3609C78.3678 32.2418 79.0792 32.1227 79.9092 32.1227C81.9249 32.0037 83.9406 32.3609 85.8377 32.5991C87.972 32.8373 90.1063 33.1946 92.2406 32.9564C93.9005 32.8373 96.3905 32.2418 96.272 30.4555C95.6791 30.0982 95.0863 30.2173 94.4934 30.4555C94.2563 30.5746 94.0191 30.5746 93.6634 30.5746C91.5291 30.8128 89.3949 30.3364 87.2606 29.86C85.1263 29.3837 82.8735 28.7882 80.3835 29.0264C81.0949 28.1928 82.0435 27.4782 82.8735 26.6446C83.4663 26.0491 84.0592 25.5728 84.652 24.9773C84.7706 24.8582 84.7706 24.8582 84.8892 24.7391C86.312 23.4291 87.972 21.8809 87.142 19.6182ZM142.159 27.4782C142.752 25.8109 143.463 22 141.092 21.4046C140.262 21.1664 139.313 21.4046 138.602 21.8809C138.602 22.3573 138.839 22.4764 139.076 22.7146C139.313 22.8337 139.55 23.0718 139.55 23.4291C139.432 23.7864 139.195 24.2628 138.957 24.8582C138.127 26.6446 136.942 28.9073 138.602 30.4555C140.499 32.2418 143.582 30.0982 144.53 29.3837C144.767 29.2646 145.005 29.0264 145.123 28.9073C145.597 28.55 146.072 28.0737 146.427 28.0737C146.665 30.3364 147.495 31.8846 149.51 32.1227C149.866 31.6464 149.866 31.17 149.747 30.6937C149.747 30.4555 149.629 30.2173 149.629 29.86C149.747 28.4309 149.984 27.0018 150.34 25.6918C150.459 25.4537 150.459 25.0964 150.577 24.8582C150.933 23.6673 151.289 22.4764 150.459 21.5237C149.392 21.2855 148.917 22 148.443 22.5955C148.324 22.7146 148.325 22.8337 148.206 22.9528C146.783 24.9773 144.649 26.5255 142.159 27.4782ZM107.062 23.31C106.232 23.6673 105.402 24.0246 104.216 24.0246C104.69 21.8809 106.588 21.1664 108.722 20.5709C109.078 20.5709 108.959 20.8091 108.722 21.0473C108.603 21.1664 108.485 21.4046 108.485 21.5237C108.248 21.8809 108.129 22.3573 108.129 22.7146C107.892 22.9528 107.536 23.1909 107.062 23.31Z" fill="white"/>
</svg>
